<svg id="Layer_1" data-name="Layer 1" xmlns="http://www.w3.org/2000/svg" viewBox="0 0 937.7 191.04"><defs><style>.cls-1{fill:#e50914;}</style></defs><path class="cls-1" d="M92.63,164.58c0,11.64-5.64,15.23-16.45,16.46l-59.57,8c-11.31,0-16-5.82-16-17.46v-154C.64,5.86,5.3,0,16.61,0H76.18C87.81,0,92.63,5.86,92.63,17.58V62.26H64.19V24.54h-37v141l37-5V126.34H92.63Z"/><path class="cls-1" d="M197.17,173l-75.07,6V0h28.56V152.53l46.51-4Z"/><path class="cls-1" d="M313.45,151.58c0,11.64-5.78,16.46-17.33,16.46l-62,4c-11.31,0-17-7.82-17-19.46v-135Q217.14,0,234.1,0h62q17.33,0,17.33,17.58Zm-28.57-7.08v-120H245.7v123Z"/><path class="cls-1" d="M440.2,166h-25L369.4,70.8a72.24,72.24,0,0,1,1.83,13.79V166l-27.83,1V0h25L414.2,109.8A72.22,72.22,0,0,1,412.37,96V0H440.2Z"/><path class="cls-1" d="M549.37,168l-79.22-2V0h78.49V25.27H498.71V76.05h43v24.78h-43v41.94l50.66,1Z"/><path class="cls-1" d="M652.91,25.27H603.47V78.79h42.24v24.78H603.47V170l-28.56-2V0h78Z"/><path class="cls-1" d="M755.77,177l-75.07-5V0h28.57V147.53l46.5,4Z"/><path class="cls-1" d="M808.45,180.55,779.89,178V0h28.56Z"/><path class="cls-1" d="M937.7,191l-28.89-3-21-64.26L866.7,184l-30.4-3L872,93.26Q838.38.48,838.5,0H869l19,62.26L907.23,0H935.5V1.1L904.05,92.53Z"/></svg>